<svg width="112" height="24" viewBox="0 0 112 24" fill="none" xmlns="http://www.w3.org/2000/svg">
<path d="M37.5856 11H36.2176L33.9296 7.536V11H32.5616V5.384H33.9296L36.2176 8.864V5.384H37.5856V11Z" fill="white"/>
<path d="M42.2333 10.008H40.1373L39.8013 11H38.3693L40.4013 5.384H41.9853L44.0173 11H42.5693L42.2333 10.008ZM41.8813 8.952L41.1853 6.896L40.4973 8.952H41.8813Z" fill="white"/>
<path d="M48.8357 5.384V6.48H47.3477V11H45.9797V6.48H44.4917V5.384H48.8357Z" fill="white"/>
<path d="M51.0503 5.384V11H49.6823V5.384H51.0503Z" fill="white"/>
<path d="M54.8576 11.056C54.3296 11.056 53.8443 10.9333 53.4016 10.688C52.9643 10.4427 52.615 10.1013 52.3536 9.664C52.0976 9.22133 51.9696 8.72533 51.9696 8.176C51.9696 7.62667 52.0976 7.13333 52.3536 6.696C52.615 6.25867 52.9643 5.91733 53.4016 5.672C53.8443 5.42667 54.3296 5.304 54.8576 5.304C55.3856 5.304 55.8683 5.42667 56.3056 5.672C56.7483 5.91733 57.095 6.25867 57.3456 6.696C57.6016 7.13333 57.7296 7.62667 57.7296 8.176C57.7296 8.72533 57.6016 9.22133 57.3456 9.664C57.0896 10.1013 56.743 10.4427 56.3056 10.688C55.8683 10.9333 55.3856 11.056 54.8576 11.056ZM54.8576 9.808C55.3056 9.808 55.663 9.65867 55.9296 9.36C56.2016 9.06133 56.3376 8.66667 56.3376 8.176C56.3376 7.68 56.2016 7.28533 55.9296 6.992C55.663 6.69333 55.3056 6.544 54.8576 6.544C54.4043 6.544 54.0416 6.69067 53.7696 6.984C53.503 7.27733 53.3696 7.67467 53.3696 8.176C53.3696 8.672 53.503 9.06933 53.7696 9.368C54.0416 9.66133 54.4043 9.808 54.8576 9.808Z" fill="white"/>
<path d="M63.6747 11H62.3067L60.0187 7.536V11H58.6507V5.384H60.0187L62.3067 8.864V5.384H63.6747V11Z" fill="white"/>
<path d="M68.3223 10.008H66.2263L65.8903 11H64.4583L66.4903 5.384H68.0743L70.1063 11H68.6583L68.3223 10.008ZM67.9703 8.952L67.2743 6.896L66.5863 8.952H67.9703Z" fill="white"/>
<path d="M72.2528 9.944H74.0448V11H70.8848V5.384H72.2528V9.944Z" fill="white"/>
<path d="M76.4806 8.184C76.4806 7.62933 76.6006 7.136 76.8406 6.704C77.0806 6.26667 77.4139 5.928 77.8406 5.688C78.2726 5.44267 78.7606 5.32 79.3046 5.32C79.9712 5.32 80.5419 5.496 81.0166 5.848C81.4912 6.2 81.8086 6.68 81.9686 7.288H80.4646C80.3526 7.05333 80.1926 6.87467 79.9846 6.752C79.7819 6.62933 79.5499 6.568 79.2886 6.568C78.8672 6.568 78.5259 6.71467 78.2646 7.008C78.0033 7.30133 77.8726 7.69333 77.8726 8.184C77.8726 8.67467 78.0033 9.06667 78.2646 9.36C78.5259 9.65333 78.8672 9.8 79.2886 9.8C79.5499 9.8 79.7819 9.73867 79.9846 9.616C80.1926 9.49333 80.3526 9.31467 80.4646 9.08H81.9686C81.8086 9.688 81.4912 10.168 81.0166 10.52C80.5419 10.8667 79.9712 11.04 79.3046 11.04C78.7606 11.04 78.2726 10.92 77.8406 10.68C77.4139 10.4347 77.0806 10.096 76.8406 9.664C76.6006 9.232 76.4806 8.73867 76.4806 8.184Z" fill="white"/>
<path d="M85.6223 11.056C85.0943 11.056 84.609 10.9333 84.1663 10.688C83.729 10.4427 83.3797 10.1013 83.1183 9.664C82.8623 9.22133 82.7343 8.72533 82.7343 8.176C82.7343 7.62667 82.8623 7.13333 83.1183 6.696C83.3797 6.25867 83.729 5.91733 84.1663 5.672C84.609 5.42667 85.0943 5.304 85.6223 5.304C86.1503 5.304 86.633 5.42667 87.0703 5.672C87.513 5.91733 87.8597 6.25867 88.1103 6.696C88.3663 7.13333 88.4943 7.62667 88.4943 8.176C88.4943 8.72533 88.3663 9.22133 88.1103 9.664C87.8543 10.1013 87.5077 10.4427 87.0703 10.688C86.633 10.9333 86.1503 11.056 85.6223 11.056ZM85.6223 9.808C86.0703 9.808 86.4277 9.65867 86.6943 9.36C86.9663 9.06133 87.1023 8.66667 87.1023 8.176C87.1023 7.68 86.9663 7.28533 86.6943 6.992C86.4277 6.69333 86.0703 6.544 85.6223 6.544C85.169 6.544 84.8063 6.69067 84.5343 6.984C84.2677 7.27733 84.1343 7.67467 84.1343 8.176C84.1343 8.672 84.2677 9.06933 84.5343 9.368C84.8063 9.66133 85.169 9.808 85.6223 9.808Z" fill="white"/>
<path d="M90.7834 9.944H92.5754V11H89.4154V5.384H90.7834V9.944Z" fill="white"/>
<path d="M94.7559 9.944H96.5479V11H93.3879V5.384H94.7559V9.944Z" fill="white"/>
<path d="M98.7284 6.48V7.616H100.56V8.672H98.7284V9.904H100.8V11H97.3604V5.384H100.8V6.48H98.7284Z" fill="white"/>
<path d="M105.577 7.16C105.475 6.97333 105.329 6.832 105.137 6.736C104.95 6.63467 104.729 6.584 104.473 6.584C104.03 6.584 103.675 6.73067 103.409 7.024C103.142 7.312 103.009 7.69867 103.009 8.184C103.009 8.70133 103.147 9.10667 103.425 9.4C103.707 9.688 104.094 9.832 104.585 9.832C104.921 9.832 105.203 9.74667 105.433 9.576C105.667 9.40533 105.838 9.16 105.945 8.84H104.209V7.832H107.185V9.104C107.083 9.44533 106.91 9.76267 106.665 10.056C106.425 10.3493 106.118 10.5867 105.745 10.768C105.371 10.9493 104.95 11.04 104.481 11.04C103.926 11.04 103.43 10.92 102.993 10.68C102.561 10.4347 102.222 10.096 101.977 9.664C101.737 9.232 101.617 8.73867 101.617 8.184C101.617 7.62933 101.737 7.136 101.977 6.704C102.222 6.26667 102.561 5.928 102.993 5.688C103.425 5.44267 103.918 5.32 104.473 5.32C105.145 5.32 105.71 5.48267 106.169 5.808C106.633 6.13333 106.939 6.584 107.089 7.16H105.577Z" fill="white"/>
<path d="M109.47 6.48V7.616H111.302V8.672H109.47V9.904H111.542V11H108.102V5.384H111.542V6.48H109.47Z" fill="white"/>
<path d="M35.3168 16.608V17.2865H32.8788V16.608H35.3168Z" fill="white"/>
<path d="M38.5097 14.9865V19H37.7047V14.9865H38.5097Z" fill="white"/>
<path d="M40.1676 15.6362V16.6425H41.5188V17.2808H40.1676V18.3445H41.6913V19H39.3626V14.9808H41.6913V15.6362H40.1676Z" fill="white"/>
<path d="M45.9131 19H45.1081L43.2854 16.2457V19H42.4804V14.9808H43.2854L45.1081 17.7408V14.9808H45.9131V19Z" fill="white"/>
<path d="M49.2271 18.2352H47.6286L47.3641 19H46.5189L47.9621 14.9808H48.8994L50.3426 19H49.4916L49.2271 18.2352ZM49.0086 17.5913L48.4279 15.9122L47.8471 17.5913H49.0086ZM49.3479 13.8422C49.3479 14.1182 49.2655 14.3348 49.1006 14.492C48.9358 14.6492 48.7115 14.7277 48.4279 14.7277C48.1519 14.7277 47.9295 14.6492 47.7609 14.492C47.596 14.331 47.5136 14.1125 47.5136 13.8365V13.7215H47.9391C47.9391 13.8518 47.9755 13.9515 48.0484 14.0205C48.1212 14.0857 48.2477 14.1182 48.4279 14.1182C48.608 14.1182 48.7345 14.0857 48.8074 14.0205C48.8802 13.9515 48.9166 13.8518 48.9166 13.7215H49.3479V13.8422Z" fill="white"/>
<path d="M50.7441 16.9875C50.7441 16.5927 50.8323 16.24 51.0086 15.9295C51.1888 15.6152 51.4322 15.3718 51.7388 15.1993C52.0493 15.0229 52.3963 14.9347 52.7796 14.9347C53.2281 14.9347 53.621 15.0497 53.9583 15.2797C54.2957 15.5097 54.5314 15.8279 54.6656 16.2343H53.7398C53.6478 16.0426 53.5175 15.8988 53.3488 15.803C53.184 15.7072 52.9923 15.6593 52.7738 15.6593C52.54 15.6593 52.3311 15.7148 52.1471 15.826C51.9669 15.9333 51.8251 16.0867 51.7216 16.286C51.6219 16.4853 51.5721 16.7192 51.5721 16.9875C51.5721 17.252 51.6219 17.4858 51.7216 17.689C51.8251 17.8883 51.9669 18.0436 52.1471 18.1547C52.3311 18.2621 52.54 18.3158 52.7738 18.3158C52.9923 18.3158 53.184 18.2678 53.3488 18.172C53.5175 18.0723 53.6478 17.9267 53.7398 17.735H54.6656C54.5314 18.1452 54.2957 18.4652 53.9583 18.6952C53.6248 18.9214 53.2319 19.0345 52.7796 19.0345C52.3963 19.0345 52.0493 18.9483 51.7388 18.7758C51.4322 18.5994 51.1888 18.356 51.0086 18.0455C50.8323 17.735 50.7441 17.3823 50.7441 16.9875Z" fill="white"/>
<path d="M58.7399 14.9865V19H57.9349V17.2922H56.2157V19H55.4107V14.9865H56.2157V16.6368H57.9349V14.9865H58.7399Z" fill="white"/>
<path d="M60.3947 14.9865V19H59.5897V14.9865H60.3947Z" fill="white"/>
<path d="M63.9788 14.9865V15.6362H62.9093V19H62.1043V15.6362H61.0348V14.9865H63.9788ZM62.8288 19.2472C62.8902 19.4696 62.9208 19.6766 62.9208 19.8682C62.9208 20.1212 62.8595 20.3168 62.7368 20.4548C62.618 20.5927 62.4398 20.6617 62.2021 20.6617V20.334C62.3976 20.334 62.4953 20.2152 62.4953 19.9775V19.874H62.1618V19.2472H62.8288Z" fill="white"/>
<path d="M67.0847 18.2352H65.4862L65.2217 19H64.3764L65.8197 14.9808H66.7569L68.2002 19H67.3492L67.0847 18.2352ZM66.8662 17.5913L66.2854 15.9122L65.7047 17.5913H66.8662ZM67.2054 13.8422C67.2054 14.1182 67.123 14.3348 66.9582 14.492C66.7934 14.6492 66.5691 14.7277 66.2854 14.7277C66.0094 14.7277 65.7871 14.6492 65.6184 14.492C65.4536 14.331 65.3712 14.1125 65.3712 13.8365V13.7215H65.7967C65.7967 13.8518 65.8331 13.9515 65.9059 14.0205C65.9788 14.0857 66.1053 14.1182 66.2854 14.1182C66.4656 14.1182 66.5921 14.0857 66.6649 14.0205C66.7378 13.9515 66.7742 13.8518 66.7742 13.7215H67.2054V13.8422Z" fill="white"/>
<path d="M73.83 14.9865L72.358 19H71.3805L69.9085 14.9865H70.771L71.875 18.1777L72.9733 14.9865H73.83Z" fill="white"/>
<path d="M76.8312 18.2352H75.2327L74.9682 19H74.1229L75.5662 14.9808H76.5034L77.9467 19H77.0957L76.8312 18.2352ZM76.6127 17.5913L76.0319 15.9122L75.4512 17.5913H76.6127ZM76.9519 13.8422C76.9519 14.1182 76.8695 14.3348 76.7047 14.492C76.5398 14.6492 76.3156 14.7277 76.0319 14.7277C75.7559 14.7277 75.5336 14.6492 75.3649 14.492C75.2001 14.331 75.1177 14.1125 75.1177 13.8365V13.7215H75.5432C75.5432 13.8518 75.5796 13.9515 75.6524 14.0205C75.7253 14.0857 75.8518 14.1182 76.0319 14.1182C76.2121 14.1182 76.3386 14.0857 76.4114 14.0205C76.4843 13.9515 76.5207 13.8518 76.5207 13.7215H76.9519V13.8422Z" fill="white"/>
<path d="M78.3481 16.9875C78.3481 16.5927 78.4363 16.24 78.6126 15.9295C78.7928 15.6152 79.0362 15.3718 79.3429 15.1993C79.6534 15.0229 80.0003 14.9347 80.3836 14.9347C80.8321 14.9347 81.2251 15.0497 81.5624 15.2797C81.8997 15.5097 82.1355 15.8279 82.2696 16.2343H81.3439C81.2519 16.0426 81.1216 15.8988 80.9529 15.803C80.7881 15.7072 80.5964 15.6593 80.3779 15.6593C80.1441 15.6593 79.9351 15.7148 79.7511 15.826C79.571 15.9333 79.4291 16.0867 79.3256 16.286C79.226 16.4853 79.1761 16.7192 79.1761 16.9875C79.1761 17.252 79.226 17.4858 79.3256 17.689C79.4291 17.8883 79.571 18.0436 79.7511 18.1547C79.9351 18.2621 80.1441 18.3158 80.3779 18.3158C80.5964 18.3158 80.7881 18.2678 80.9529 18.172C81.1216 18.0723 81.2519 17.9267 81.3439 17.735H82.2696C82.1355 18.1452 81.8997 18.4652 81.5624 18.6952C81.2289 18.9214 80.836 19.0345 80.3836 19.0345C80.0003 19.0345 79.6534 18.9483 79.3429 18.7758C79.0362 18.5994 78.7928 18.356 78.6126 18.0455C78.4363 17.735 78.3481 17.3823 78.3481 16.9875Z" fill="white"/>
<path d="M85.4757 18.2352H83.8772L83.6127 19H82.7675L84.2107 14.9808H85.148L86.5912 19H85.7402L85.4757 18.2352ZM85.2572 17.5913L84.6765 15.9122L84.0957 17.5913H85.2572ZM85.5965 13.8422C85.5965 14.1182 85.514 14.3348 85.3492 14.492C85.1844 14.6492 84.9601 14.7277 84.6765 14.7277C84.4005 14.7277 84.1781 14.6492 84.0095 14.492C83.8446 14.331 83.7622 14.1125 83.7622 13.8365V13.7215H84.1877C84.1877 13.8518 84.2241 13.9515 84.297 14.0205C84.3698 14.0857 84.4963 14.1182 84.6765 14.1182C84.8566 14.1182 84.9831 14.0857 85.056 14.0205C85.1288 13.9515 85.1652 13.8518 85.1652 13.7215H85.5965V13.8422Z" fill="white"/>
<path d="M89.2582 19L88.3727 17.436H87.9932V19H87.1882V14.9865H88.6947C89.0052 14.9865 89.2697 15.0421 89.4882 15.1532C89.7067 15.2606 89.8696 15.4082 89.9769 15.596C90.0881 15.78 90.1437 15.987 90.1437 16.217C90.1437 16.4815 90.067 16.7211 89.9137 16.9358C89.7603 17.1466 89.5323 17.2923 89.2294 17.3728L90.1897 19H89.2582ZM87.9932 16.8322H88.6659C88.8844 16.8322 89.0473 16.7805 89.1547 16.677C89.262 16.5697 89.3157 16.4221 89.3157 16.2343C89.3157 16.0503 89.262 15.9084 89.1547 15.8088C89.0473 15.7053 88.8844 15.6535 88.6659 15.6535H87.9932V16.8322Z" fill="white"/>
<path d="M91.7343 15.6362V16.6425H93.0855V17.2808H91.7343V18.3445H93.258V19H90.9293V14.9808H93.258V15.6362H91.7343Z" fill="white"/>
<path d="M95.4328 19.0402C95.153 19.0402 94.9 18.9923 94.6738 18.8965C94.4515 18.8007 94.2752 18.6627 94.1448 18.4825C94.0145 18.3023 93.9474 18.0896 93.9436 17.8442H94.8061C94.8176 18.0091 94.8751 18.1394 94.9786 18.2352C95.0859 18.3311 95.2316 18.379 95.4156 18.379C95.6034 18.379 95.751 18.3349 95.8583 18.2467C95.9657 18.1547 96.0193 18.0359 96.0193 17.8903C96.0193 17.7714 95.9829 17.6737 95.9101 17.597C95.8372 17.5203 95.7452 17.4609 95.6341 17.4187C95.5267 17.3727 95.3772 17.3229 95.1856 17.2692C94.9249 17.1926 94.7122 17.1178 94.5473 17.045C94.3863 16.9683 94.2464 16.8552 94.1276 16.7057C94.0126 16.5524 93.9551 16.3492 93.9551 16.0962C93.9551 15.8586 94.0145 15.6516 94.1333 15.4753C94.2522 15.2989 94.4189 15.1648 94.6336 15.0728C94.8482 14.9769 95.0936 14.929 95.3696 14.929C95.7836 14.929 96.119 15.0306 96.3758 15.2337C96.6365 15.4331 96.7802 15.7129 96.8071 16.0732H95.9216C95.9139 15.9352 95.8545 15.8222 95.7433 15.734C95.636 15.642 95.4922 15.596 95.3121 15.596C95.1549 15.596 95.0284 15.6363 94.9326 15.7168C94.8406 15.7973 94.7946 15.9142 94.7946 16.0675C94.7946 16.1748 94.8291 16.2649 94.8981 16.3377C94.9709 16.4067 95.0591 16.4643 95.1626 16.5103C95.2699 16.5524 95.4194 16.6022 95.6111 16.6597C95.8717 16.7364 96.0845 16.8131 96.2493 16.8897C96.4142 16.9664 96.556 17.0814 96.6748 17.2347C96.7937 17.3881 96.8531 17.5893 96.8531 17.8385C96.8531 18.0532 96.7975 18.2525 96.6863 18.4365C96.5752 18.6205 96.4122 18.7681 96.1976 18.8792C95.9829 18.9866 95.728 19.0402 95.4328 19.0402Z" fill="white"/>
<path d="M97.413 16.9875C97.413 16.5927 97.5011 16.24 97.6775 15.9295C97.8576 15.6152 98.1011 15.3718 98.4077 15.1993C98.7182 15.0229 99.0651 14.9347 99.4485 14.9347C99.897 14.9347 100.29 15.0497 100.627 15.2797C100.965 15.5097 101.2 15.8279 101.334 16.2343H100.409C100.317 16.0426 100.186 15.8988 100.018 15.803C99.8529 15.7072 99.6612 15.6593 99.4427 15.6593C99.2089 15.6593 99 15.7148 98.816 15.826C98.6358 15.9333 98.494 16.0867 98.3905 16.286C98.2908 16.4853 98.241 16.7192 98.241 16.9875C98.241 17.252 98.2908 17.4858 98.3905 17.689C98.494 17.8883 98.6358 18.0436 98.816 18.1547C99 18.2621 99.2089 18.3158 99.4427 18.3158C99.6612 18.3158 99.8529 18.2678 100.018 18.172C100.186 18.0723 100.317 17.9267 100.409 17.735H101.334C101.2 18.1452 100.965 18.4652 100.627 18.6952C100.294 18.9214 99.9008 19.0345 99.4485 19.0345C99.0651 19.0345 98.7182 18.9483 98.4077 18.7758C98.1011 18.5994 97.8576 18.356 97.6775 18.0455C97.5011 17.735 97.413 17.3823 97.413 16.9875Z" fill="white"/>
<path d="M102.873 14.9865V17.4705C102.873 17.7427 102.944 17.9516 103.086 18.0972C103.228 18.2391 103.427 18.31 103.684 18.31C103.944 18.31 104.146 18.2391 104.288 18.0972C104.429 17.9516 104.5 17.7427 104.5 17.4705V14.9865H105.311V17.4648C105.311 17.8059 105.236 18.0953 105.087 18.333C104.941 18.5668 104.744 18.7432 104.495 18.862C104.249 18.9808 103.975 19.0402 103.672 19.0402C103.373 19.0402 103.101 18.9808 102.856 18.862C102.614 18.7432 102.423 18.5668 102.281 18.333C102.139 18.0953 102.068 17.8059 102.068 17.4648V14.9865H102.873Z" fill="white"/>
<path d="M110.023 16.608V17.2865H107.585V16.608H110.023Z" fill="white"/>
<path d="M3 13V10.5C3 10.0858 2.66421 9.75 2.25 9.75C1.83579 9.75 1.5 10.0858 1.5 10.5V13C1.5 13.4142 1.83579 13.75 2.25 13.75C2.66421 13.75 3 13.4142 3 13Z" fill="white"/>
<path d="M2 14.25V6H2.5V14.25C2.5 14.3881 2.38807 14.5 2.25 14.5C2.11193 14.5 2 14.3881 2 14.25Z" fill="white"/>
<path d="M8.5 23H1.65C1.56716 23 1.5 22.9328 1.5 22.85V16.3121C1.5 16.1863 1.64584 16.1157 1.74562 16.1923C2.56503 16.821 3.88358 17.7182 5.5 18.6207M8.5 23H23.35C23.4328 23 23.5 22.9328 23.5 22.85V16.3992C23.5 16.2607 23.3237 16.1913 23.2242 16.2877C22.5729 16.9181 21.355 17.8286 19.5 18.8398M8.5 23C10.2215 22.5509 11.7831 22.0715 13.192 21.5801M19.5 18.8398C17.8916 19.7165 15.8042 20.6689 13.192 21.5801M19.5 18.8398V12.601C19.5 12.4447 19.2846 12.3888 19.2051 12.5233C18.1304 14.3421 15.7596 17.5685 12.5 20.0331M13.192 21.5801C12.688 21.4541 11.4951 21.2286 11 21.0676M11 21.0676C9.0043 20.4185 7.10526 19.517 5.5 18.6207M11 21.0676C11.5185 20.744 12.0189 20.3968 12.5 20.0331M5.5 18.6207V12.6448C5.5 12.486 5.72628 12.4287 5.80596 12.5661C6.74108 14.1785 8.97243 17.2344 12.5 20.0331" stroke="white" stroke-width="0.75"/>
<path d="M5.50001 11V8H19.5V11C14.0449 9.04855 10.9775 9.04253 5.50001 11Z" fill="white"/>
<path d="M12.5 0L0.997944 5.75103C0.805006 5.8475 0.816616 6.12664 1.0169 6.20676L5.50001 8H19.5L23.9831 6.20676C24.1834 6.12664 24.195 5.8475 24.0021 5.75103L12.5 0Z" fill="white"/>
<path d="M5.50001 7.5L5.50001 8H19.5V7.5H5.50001Z" fill="white"/>
</svg>
