<svg width="178" height="35" viewBox="0 0 178 35" fill="none" xmlns="http://www.w3.org/2000/svg">
<path d="M11.8954 0.3H9.08137V9.771L3.62137 0.3H0.807373V15H3.62137V5.529L9.08137 15H11.8954V0.3Z" fill="#282828"/>
<path d="M21.4756 9.372H18.1996L19.8376 4.605L21.4756 9.372ZM22.4416 12.039L23.4916 15H26.4316L21.1816 0.3H18.4936L13.2436 15H16.1836L17.2336 12.039H22.4416Z" fill="#282828"/>
<path d="M36.5133 3.093V0.3H25.4253V3.093H29.5203V15H32.4183V3.093H36.5133Z" fill="#282828"/>
<path d="M40.679 0.3H37.865V15H40.679V0.3Z" fill="#282828"/>
<path d="M54.0491 9.771V5.529C54.0491 2.274 52.0331 0.0900002 48.5051 0.0900002C44.9771 0.0900002 42.9611 2.274 42.9611 5.529V9.771C42.9611 13.026 44.9771 15.21 48.5051 15.21C52.0331 15.21 54.0491 13.026 54.0491 9.771ZM51.2351 9.771C51.2351 11.472 50.0381 12.417 48.5051 12.417C46.9721 12.417 45.7751 11.472 45.7751 9.771V5.529C45.7751 3.828 46.9721 2.883 48.5051 2.883C50.0381 2.883 51.2351 3.828 51.2351 5.529V9.771Z" fill="#282828"/>
<path d="M67.4305 0.3H64.6165V9.771L59.1565 0.3H56.3425V15H59.1565V5.529L64.6165 15H67.4305V0.3Z" fill="#282828"/>
<path d="M77.0108 9.372H73.7348L75.3728 4.605L77.0108 9.372ZM77.9768 12.039L79.0268 15H81.9668L76.7168 0.3H74.0288L68.7788 15H71.7188L72.7688 12.039H77.9768Z" fill="#282828"/>
<path d="M86.1243 0.3H83.3103V15H92.2563V12.207H86.1243V0.3Z" fill="#282828"/>
<path d="M105.847 10.086C105.7 11.598 104.566 12.417 103.138 12.417C101.605 12.417 100.408 11.472 100.408 9.771V5.529C100.408 3.828 101.605 2.883 103.138 2.883C104.566 2.883 105.7 3.723 105.847 5.214H108.682C108.556 2.127 106.561 0.0900002 103.138 0.0900002C99.6099 0.0900002 97.5939 2.274 97.5939 5.529V9.771C97.5939 13.026 99.6099 15.21 103.138 15.21C106.561 15.21 108.556 13.173 108.682 10.086H105.847Z" fill="#282828"/>
<path d="M121.417 9.771V5.529C121.417 2.274 119.401 0.0900002 115.873 0.0900002C112.345 0.0900002 110.329 2.274 110.329 5.529V9.771C110.329 13.026 112.345 15.21 115.873 15.21C119.401 15.21 121.417 13.026 121.417 9.771ZM118.603 9.771C118.603 11.472 117.406 12.417 115.873 12.417C114.34 12.417 113.143 11.472 113.143 9.771V5.529C113.143 3.828 114.34 2.883 115.873 2.883C117.406 2.883 118.603 3.828 118.603 5.529V9.771Z" fill="#282828"/>
<path d="M126.525 0.3H123.711V15H132.657V12.207H126.525V0.3Z" fill="#282828"/>
<path d="M136.84 0.3H134.026V15H142.972V12.207H136.84V0.3Z" fill="#282828"/>
<path d="M147.156 3.093H153.288V0.3H144.342V15H153.288V12.207H147.156V8.973H153.288V6.18H147.156V3.093Z" fill="#282828"/>
<path d="M160.785 9.393H163.515V9.771C163.515 11.472 162.318 12.417 160.785 12.417C159.252 12.417 158.055 11.472 158.055 9.771V5.529C158.055 3.828 159.252 2.883 160.785 2.883C162.129 2.883 163.221 3.618 163.473 4.941H166.308C166.077 2.022 164.103 0.0900002 160.785 0.0900002C157.257 0.0900002 155.241 2.274 155.241 5.529V9.771C155.241 13.026 157.257 15.21 160.785 15.21C164.313 15.21 166.329 13.026 166.329 9.771V6.6H160.785V9.393Z" fill="#282828"/>
<path d="M171.396 3.093H177.528V0.3H168.582V15H177.528V12.207H171.396V8.973H177.528V6.18H171.396V3.093Z" fill="#282828"/>
<path d="M3.6438 24.464H2.7638L3.3878 22.8H2.1238L1.4998 24.464V26.608H3.6438V24.464ZM6.8598 24.464H5.9798L6.6038 22.8H5.3398L4.7158 24.464V26.608H6.8598V24.464Z" fill="#282828"/>
<path d="M10.7476 22.8H9.03555V34H10.7476V22.8Z" fill="#282828"/>
<path d="M14.8257 24.496H19.7217V22.8H13.1137V34H19.7217V32.304H14.8257V29.2H19.7217V27.504H14.8257V24.496Z" fill="#282828"/>
<path d="M29.8644 22.8H28.1524V30.832L23.5444 22.8H21.8324V34H23.5444V25.968L28.1524 34H29.8644V22.8Z" fill="#282828"/>
<path d="M39.0227 34H40.7827L36.8627 22.8H35.1027L31.1827 34H32.9427L33.8867 31.296H38.0787L39.0227 34ZM34.4307 29.712L35.9827 25.264L37.5347 29.712H34.4307Z" fill="#282828"/>
<path d="M49.6062 30.528H47.8942C47.7502 31.872 46.6462 32.464 45.6062 32.464C44.4862 32.464 43.3022 31.776 43.3022 30.208V26.592C43.3022 25.024 44.4862 24.336 45.6062 24.336C46.6462 24.336 47.7502 24.928 47.8942 26.272H49.6062C49.4782 24.032 47.8942 22.64 45.6062 22.64C43.2062 22.64 41.5902 24.176 41.5902 26.592V30.208C41.5902 32.624 43.2062 34.16 45.6062 34.16C47.8942 34.16 49.4622 32.752 49.6062 30.528Z" fill="#282828"/>
<path d="M57.7931 27.504H53.1851V22.8H51.4731V34H53.1851V29.2H57.7931V34H59.5051V22.8H57.7931V27.504Z" fill="#282828"/>
<path d="M63.5913 22.8H61.8793V34H63.5913V22.8Z" fill="#282828"/>
<path d="M72.9174 24.496V22.8H64.9014V24.496H68.0534V34H69.7654V24.496H72.9174Z" fill="#282828"/>
<path d="M80.1633 34H81.9233L78.0033 22.8H76.2433L72.3233 34H74.0833L75.0273 31.296H79.2193L80.1633 34ZM75.5713 29.712L77.1233 25.264L78.6753 29.712H75.5713Z" fill="#282828"/>
<path d="M95.2827 22.8H93.5227L90.4827 31.536L87.4427 22.8H85.6827L89.6027 34H91.3627L95.2827 22.8Z" fill="#282828"/>
<path d="M102.085 34H103.845L99.9252 22.8H98.1652L94.2452 34H96.0052L96.9492 31.296H101.141L102.085 34ZM97.4932 29.712L99.0452 25.264L100.597 29.712H97.4932Z" fill="#282828"/>
<path d="M112.669 30.528H110.957C110.813 31.872 109.709 32.464 108.669 32.464C107.549 32.464 106.365 31.776 106.365 30.208V26.592C106.365 25.024 107.549 24.336 108.669 24.336C109.709 24.336 110.813 24.928 110.957 26.272H112.669C112.541 24.032 110.957 22.64 108.669 22.64C106.269 22.64 104.653 24.176 104.653 26.592V30.208C104.653 32.624 106.269 34.16 108.669 34.16C110.957 34.16 112.525 32.752 112.669 30.528Z" fill="#282828"/>
<path d="M121.241 34H123.001L119.081 22.8H117.321L113.401 34H115.161L116.105 31.296H120.297L121.241 34ZM116.649 29.712L118.201 25.264L119.753 29.712H116.649Z" fill="#282828"/>
<path d="M127.773 29.184L130.605 34H132.525L129.645 29.104C131.277 28.8 132.157 27.648 132.157 26C132.157 24.064 130.941 22.8 128.717 22.8H124.317V34H126.029V29.184H127.773ZM130.413 26.016C130.413 26.992 129.757 27.536 128.717 27.536H126.029V24.496H128.717C129.757 24.496 130.413 25.04 130.413 26.016Z" fill="#282828"/>
<path d="M135.794 24.496H140.69V22.8H134.082V34H140.69V32.304H135.794V29.2H140.69V27.504H135.794V24.496Z" fill="#282828"/>
<path d="M146.225 34.16C148.561 34.16 149.889 32.88 149.889 31.072C149.889 29.264 148.977 28.192 147.201 27.76L145.281 27.296C144.545 27.12 144.017 26.672 144.017 25.808C144.017 24.96 144.577 24.336 145.905 24.336C146.993 24.336 147.745 24.88 147.969 25.792H149.713C149.441 23.92 148.145 22.64 145.889 22.64C143.905 22.64 142.273 23.648 142.273 25.808C142.273 27.408 143.105 28.592 144.577 28.944L146.561 29.424C147.681 29.696 148.145 30.208 148.145 31.04C148.145 31.904 147.409 32.464 146.257 32.464C144.945 32.464 144.081 31.776 143.841 30.528H142.097C142.273 32.608 143.649 34.16 146.225 34.16Z" fill="#282828"/>
<path d="M159.356 30.528H157.644C157.5 31.872 156.396 32.464 155.356 32.464C154.236 32.464 153.052 31.776 153.052 30.208V26.592C153.052 25.024 154.236 24.336 155.356 24.336C156.396 24.336 157.5 24.928 157.644 26.272H159.356C159.228 24.032 157.644 22.64 155.356 22.64C152.956 22.64 151.34 24.176 151.34 26.592V30.208C151.34 32.624 152.956 34.16 155.356 34.16C157.644 34.16 159.212 32.752 159.356 30.528Z" fill="#282828"/>
<path d="M167.399 30.208C167.399 31.776 166.215 32.464 165.095 32.464C163.975 32.464 162.791 31.776 162.791 30.208V22.8H161.079V30.208C161.079 32.624 162.695 34.16 165.095 34.16C167.495 34.16 169.111 32.624 169.111 30.208V22.8H167.399V30.208Z" fill="#282828"/>
<path d="M174.356 24.944H175.236L174.612 26.608H175.876L176.5 24.944V22.8H174.356V24.944ZM171.14 24.944H172.02L171.396 26.608H172.66L173.284 24.944V22.8H171.14V24.944Z" fill="#282828"/>
</svg>
