<svg width="50" height="50" viewBox="0 0 50 50" fill="none" xmlns="http://www.w3.org/2000/svg">
<path d="M0 0H50V50H0V0Z" fill="#216FED"/>
<path d="M13.074 27.568C12.948 28.864 11.976 29.566 10.752 29.566C9.438 29.566 8.412 28.756 8.412 27.298V23.662C8.412 22.204 9.438 21.394 10.752 21.394C11.976 21.394 12.948 22.114 13.074 23.392H15.504C15.396 20.746 13.686 19 10.752 19C7.728 19 6 20.872 6 23.662V27.298C6 30.088 7.728 31.96 10.752 31.96C13.686 31.96 15.396 30.214 15.504 27.568H13.074Z" fill="#F7F7F7"/>
<path d="M26.798 19.18H24.386V27.298L19.706 19.18H17.294V31.78H19.706V23.662L24.386 31.78H26.798V19.18Z" fill="#F7F7F7"/>
<path d="M31.5537 19.18H29.1417V31.78H31.5537V19.18Z" fill="#F7F7F7"/>
<path d="M38.3698 27.946L35.2378 19.18H32.6998L37.1998 31.78H39.5398L44.0398 19.18H41.5018L38.3698 27.946Z" fill="#F7F7F7"/>
</svg>
