<svg width="249" height="47" viewBox="0 0 249 47" fill="none" xmlns="http://www.w3.org/2000/svg">
<path d="M82.3954 6.5H79.5814V15.971L74.1214 6.5H71.3074V21.2H74.1214V11.729L79.5814 21.2H82.3954V6.5Z" fill="#282828"/>
<path d="M91.9756 15.572H88.6996L90.3376 10.805L91.9756 15.572ZM92.9417 18.239L93.9916 21.2H96.9316L91.6816 6.5H88.9937L83.7436 21.2H86.6836L87.7337 18.239H92.9417Z" fill="#282828"/>
<path d="M107.013 9.293V6.5H95.9253V9.293H100.02V21.2H102.918V9.293H107.013Z" fill="#282828"/>
<path d="M111.179 6.5H108.365V21.2H111.179V6.5Z" fill="#282828"/>
<path d="M124.549 15.971V11.729C124.549 8.474 122.533 6.29 119.005 6.29C115.477 6.29 113.461 8.474 113.461 11.729V15.971C113.461 19.226 115.477 21.41 119.005 21.41C122.533 21.41 124.549 19.226 124.549 15.971ZM121.735 15.971C121.735 17.672 120.538 18.617 119.005 18.617C117.472 18.617 116.275 17.672 116.275 15.971V11.729C116.275 10.028 117.472 9.083 119.005 9.083C120.538 9.083 121.735 10.028 121.735 11.729V15.971Z" fill="#282828"/>
<path d="M137.931 6.5H135.117V15.971L129.657 6.5H126.843V21.2H129.657V11.729L135.117 21.2H137.931V6.5Z" fill="#282828"/>
<path d="M147.511 15.572H144.235L145.873 10.805L147.511 15.572ZM148.477 18.239L149.527 21.2H152.467L147.217 6.5H144.529L139.279 21.2H142.219L143.269 18.239H148.477Z" fill="#282828"/>
<path d="M156.624 6.5H153.81V21.2H162.756V18.407H156.624V6.5Z" fill="#282828"/>
<path d="M176.347 16.286C176.2 17.798 175.066 18.617 173.638 18.617C172.105 18.617 170.908 17.672 170.908 15.971V11.729C170.908 10.028 172.105 9.083 173.638 9.083C175.066 9.083 176.2 9.923 176.347 11.414H179.182C179.056 8.327 177.061 6.29 173.638 6.29C170.11 6.29 168.094 8.474 168.094 11.729V15.971C168.094 19.226 170.11 21.41 173.638 21.41C177.061 21.41 179.056 19.373 179.182 16.286H176.347Z" fill="#282828"/>
<path d="M191.917 15.971V11.729C191.917 8.474 189.901 6.29 186.373 6.29C182.845 6.29 180.829 8.474 180.829 11.729V15.971C180.829 19.226 182.845 21.41 186.373 21.41C189.901 21.41 191.917 19.226 191.917 15.971ZM189.103 15.971C189.103 17.672 187.906 18.617 186.373 18.617C184.84 18.617 183.643 17.672 183.643 15.971V11.729C183.643 10.028 184.84 9.083 186.373 9.083C187.906 9.083 189.103 10.028 189.103 11.729V15.971Z" fill="#282828"/>
<path d="M197.025 6.5H194.211V21.2H203.157V18.407H197.025V6.5Z" fill="#282828"/>
<path d="M207.34 6.5H204.526V21.2H213.472V18.407H207.34V6.5Z" fill="#282828"/>
<path d="M217.656 9.293H223.788V6.5H214.842V21.2H223.788V18.407H217.656V15.173H223.788V12.38H217.656V9.293Z" fill="#282828"/>
<path d="M231.285 15.593H234.015V15.971C234.015 17.672 232.818 18.617 231.285 18.617C229.752 18.617 228.555 17.672 228.555 15.971V11.729C228.555 10.028 229.752 9.083 231.285 9.083C232.629 9.083 233.721 9.818 233.973 11.141H236.808C236.577 8.222 234.603 6.29 231.285 6.29C227.757 6.29 225.741 8.474 225.741 11.729V15.971C225.741 19.226 227.757 21.41 231.285 21.41C234.813 21.41 236.829 19.226 236.829 15.971V12.8H231.285V15.593Z" fill="#282828"/>
<path d="M241.896 9.293H248.028V6.5H239.082V21.2H248.028V18.407H241.896V15.173H248.028V12.38H241.896V9.293Z" fill="#282828"/>
<path d="M72.7908 30.824H71.7348L72.4228 29H70.9188L70.2308 30.824V33.384H72.7908V30.824ZM76.6308 30.824H75.5748L76.2628 29H74.7588L74.0708 30.824V33.384H76.6308V30.824Z" fill="#282828"/>
<path d="M80.6606 29H78.5166V40.2H80.6606V29Z" fill="#282828"/>
<path d="M84.8793 31.128H89.5513V29H82.7353V40.2H89.5513V38.072H84.8793V35.608H89.5513V33.48H84.8793V31.128Z" fill="#282828"/>
<path d="M99.8239 29H97.6799V36.216L93.5199 29H91.3759V40.2H93.5199V32.984L97.6799 40.2H99.8239V29Z" fill="#282828"/>
<path d="M107.123 35.912H104.627L105.875 32.28L107.123 35.912ZM107.859 37.944L108.659 40.2H110.899L106.899 29H104.851L100.851 40.2H103.091L103.891 37.944H107.859Z" fill="#282828"/>
<path d="M117.734 36.456C117.622 37.608 116.758 38.232 115.67 38.232C114.502 38.232 113.59 37.512 113.59 36.216V32.984C113.59 31.688 114.502 30.968 115.67 30.968C116.758 30.968 117.622 31.608 117.734 32.744H119.894C119.798 30.392 118.278 28.84 115.67 28.84C112.982 28.84 111.446 30.504 111.446 32.984V36.216C111.446 38.696 112.982 40.36 115.67 40.36C118.278 40.36 119.798 38.808 119.894 36.456H117.734Z" fill="#282828"/>
<path d="M127.789 33.48H123.629V29H121.485V40.2H123.629V35.608H127.789V40.2H129.933V29H127.789V33.48Z" fill="#282828"/>
<path d="M134.161 29H132.017V40.2H134.161V29Z" fill="#282828"/>
<path d="M143.627 31.128V29H135.179V31.128H138.299V40.2H140.507V31.128H143.627Z" fill="#282828"/>
<path d="M149.139 35.912H146.643L147.891 32.28L149.139 35.912ZM149.875 37.944L150.675 40.2H152.915L148.915 29H146.867L142.867 40.2H145.107L145.907 37.944H149.875Z" fill="#282828"/>
<path d="M161.282 36.792L158.498 29H156.242L160.242 40.2H162.322L166.322 29H164.066L161.282 36.792Z" fill="#282828"/>
<path d="M171.123 35.912H168.627L169.875 32.28L171.123 35.912ZM171.859 37.944L172.659 40.2H174.899L170.899 29H168.851L164.851 40.2H167.091L167.891 37.944H171.859Z" fill="#282828"/>
<path d="M181.734 36.456C181.622 37.608 180.758 38.232 179.67 38.232C178.502 38.232 177.59 37.512 177.59 36.216V32.984C177.59 31.688 178.502 30.968 179.67 30.968C180.758 30.968 181.622 31.608 181.734 32.744H183.894C183.798 30.392 182.278 28.84 179.67 28.84C176.982 28.84 175.446 30.504 175.446 32.984V36.216C175.446 38.696 176.982 40.36 179.67 40.36C182.278 40.36 183.798 38.808 183.894 36.456H181.734Z" fill="#282828"/>
<path d="M190.639 35.912H188.143L189.391 32.28L190.639 35.912ZM191.375 37.944L192.175 40.2H194.415L190.415 29H188.367L184.367 40.2H186.607L187.407 37.944H191.375Z" fill="#282828"/>
<path d="M198.894 35.592L201.598 40.2H204.062L201.278 35.48C202.846 35.112 203.694 33.96 203.694 32.296C203.694 30.28 202.43 29 200.158 29H195.438V40.2H197.582V35.592H198.894ZM201.55 32.328C201.55 33.096 201.022 33.512 200.206 33.512H197.582V31.128H200.206C201.022 31.128 201.55 31.544 201.55 32.328Z" fill="#282828"/>
<path d="M207.473 31.128H212.145V29H205.329V40.2H212.145V38.072H207.473V35.608H212.145V33.48H207.473V31.128Z" fill="#282828"/>
<path d="M217.41 40.36C219.842 40.36 221.154 39.128 221.154 37.112C221.154 35.224 220.226 34.168 218.498 33.704L216.674 33.208C216.066 33.048 215.554 32.76 215.554 32.104C215.554 31.32 216.194 30.968 217.09 30.968C217.81 30.968 218.594 31.304 218.786 32.056H220.994C220.754 30.152 219.362 28.84 217.122 28.84C215.17 28.84 213.41 29.864 213.41 32.104C213.41 33.752 214.258 34.952 215.97 35.416L217.858 35.928C218.642 36.136 219.01 36.488 219.01 37.112C219.01 37.88 218.354 38.232 217.41 38.232C216.338 38.232 215.602 37.608 215.474 36.664H213.266C213.378 38.888 214.962 40.36 217.41 40.36Z" fill="#282828"/>
<path d="M228.578 36.456C228.466 37.608 227.602 38.232 226.514 38.232C225.346 38.232 224.434 37.512 224.434 36.216V32.984C224.434 31.688 225.346 30.968 226.514 30.968C227.602 30.968 228.466 31.608 228.578 32.744H230.738C230.642 30.392 229.122 28.84 226.514 28.84C223.826 28.84 222.29 30.504 222.29 32.984V36.216C222.29 38.696 223.826 40.36 226.514 40.36C229.122 40.36 230.642 38.808 230.738 36.456H228.578Z" fill="#282828"/>
<path d="M238.489 29V36.216C238.489 37.512 237.577 38.232 236.409 38.232C235.241 38.232 234.329 37.512 234.329 36.216V29H232.185V36.216C232.185 38.696 233.721 40.36 236.409 40.36C239.097 40.36 240.633 38.696 240.633 36.216V29H238.489Z" fill="#282828"/>
<path d="M246.211 31.56H247.267L246.579 33.384H248.083L248.771 31.56V29H246.211V31.56ZM242.371 31.56H243.427L242.739 33.384H244.243L244.931 31.56V29H242.371V31.56Z" fill="#282828"/>
<path d="M28 0L0 10.0952L28 20L39.0833 16.4706L29.3803 12C29.0648 12.1524 28.4601 12.1905 28.1972 12.1905C25.9642 12.1905 24.7849 11.4908 24.2397 10.8342C23.8886 10.4114 23.9444 9.80085 24.3167 9.39669C24.932 8.72876 26.1462 8 28.1972 8C30.3925 8 31.472 8.835 31.9096 9.53661V9.53661C32.2508 10.0838 32.4318 10.893 33.0168 11.1643L41.8028 15.2381L56 10.0952L28 0Z" fill="#282828"/>
<path d="M28.5134 41.0127C21.483 33.9322 12.9751 32.0338 9.6 31.9696V16L28.5134 22.9266L39.594 18.8861V33.8937C35.4675 35.1251 30.4876 39.1527 28.5134 41.0127Z" fill="#282828"/>
<path d="M48 31.2L44.5612 32.5468V42.0022C44.5612 43.1355 44.5902 44.3617 43.9016 45.2619C43.5141 45.7684 43.0323 46.0518 42.5761 46.2327C42.2516 46.3613 41.9005 46.4 41.5515 46.4C41.1392 46.4 40.7217 46.3702 40.3432 46.207C39.4251 45.811 38.2567 44.8735 38.2567 43.1291C38.2567 41.6718 39.0722 40.7777 39.8759 40.2919V40.2919C40.9503 39.6426 42.0776 38.8405 42.0776 37.5852V18.1165L48 16V31.2Z" fill="#282828"/>
</svg>
