<svg width="32" height="28" viewBox="0 0 32 28" fill="none" xmlns="http://www.w3.org/2000/svg">
<path d="M16 0L0 6.09195L16 12.069L22.3333 9.93915L16.7887 7.24138C16.6085 7.33333 16.2629 7.35632 16.1127 7.35632C14.946 7.35632 14.2827 7.00334 13.9395 6.64C13.6572 6.34123 13.6965 5.86171 13.9873 5.57225C14.3621 5.19916 15.0354 4.82759 16.1127 4.82759C17.3672 4.82759 17.984 5.33146 18.234 5.75485V5.75485C18.4336 6.09278 18.5393 6.57672 18.8918 6.74931L23.8873 9.1954L32 6.09195L16 0Z" fill="black"/>
<path d="M16.2934 24.749C12.276 20.4763 7.41436 19.3307 5.48571 19.292V9.65517L16.2934 13.835L22.6252 11.3968V20.4531C20.2671 21.1962 17.4215 23.6267 16.2934 24.749Z" fill="black"/>
<path d="M27.4286 18.8276L25.4635 19.6403V25.3461C25.4635 26.0301 25.4801 26.77 25.0866 27.3132C24.8652 27.6189 24.5899 27.7899 24.3292 27.899C24.1438 27.9767 23.9431 28 23.7437 28C23.5081 28 23.2696 27.982 23.0533 27.8835C22.5286 27.6446 21.861 27.0788 21.861 26.0262C21.861 25.1468 22.327 24.6072 22.7862 24.3141V24.3141C23.393 23.9269 24.0444 23.4688 24.0444 22.749V10.9323L27.4286 9.65517V18.8276Z" fill="black"/>
</svg>
