<?xml version="1.0" standalone="no"?>
<!DOCTYPE svg PUBLIC "-//W3C//DTD SVG 20010904//EN"
 "http://www.w3.org/TR/2001/REC-SVG-20010904/DTD/svg10.dtd">
<svg version="1.0" xmlns="http://www.w3.org/2000/svg"
 width="1024.000000pt" height="1024.000000pt" viewBox="0 0 1024.000000 1024.000000"
 preserveAspectRatio="xMidYMid meet">
<metadata>
Created by potrace 1.14, written by Peter Selinger 2001-2017
</metadata>
<g transform="translate(0.000000,1024.000000) scale(0.100000,-0.100000)"
fill="#000000" stroke="none">
<path d="M5100 9593 c-8 -2 -24 -8 -35 -13 -19 -9 -62 -25 -295 -114 -52 -20
-101 -36 -107 -36 -7 0 -13 -4 -13 -8 0 -5 -6 -9 -12 -9 -7 0 -62 -19 -123
-43 -60 -23 -146 -56 -190 -72 -44 -17 -89 -34 -100 -39 -19 -9 -115 -45 -300
-114 -212 -79 -411 -156 -427 -165 -10 -5 -22 -10 -27 -10 -5 0 -22 -5 -38
-12 -15 -6 -48 -19 -73 -28 -133 -49 -669 -254 -695 -265 -31 -13 -66 -27 -75
-30 -20 -5 -60 -19 -85 -30 -36 -15 -193 -76 -365 -140 -69 -25 -152 -57 -185
-70 -33 -13 -100 -39 -150 -58 -49 -19 -99 -38 -110 -42 -11 -4 -25 -9 -31
-10 -6 -2 -27 -9 -45 -17 -19 -8 -59 -24 -89 -36 -115 -43 -223 -84 -299 -113
-44 -17 -84 -31 -88 -32 -4 0 -36 -13 -71 -28 -34 -16 -62 -25 -62 -22 0 4 -5
2 -12 -5 -7 -7 -20 -12 -30 -12 -10 0 -18 -5 -18 -12 0 -6 -3 -9 -6 -5 -5 5
-67 -15 -129 -42 -55 -25 -239 -91 -251 -91 -8 0 -14 -4 -14 -10 0 -5 -6 -10
-12 -10 -18 0 -528 -194 -528 -200 0 -3 26 -14 58 -25 31 -10 61 -22 67 -27 5
-4 15 -8 23 -8 13 0 66 -21 104 -41 10 -5 23 -9 30 -9 10 0 101 -33 163 -60
11 -4 45 -17 75 -28 30 -12 111 -42 180 -67 69 -26 130 -48 135 -49 10 -3 26
-9 121 -47 29 -11 58 -22 65 -23 8 -2 28 -9 44 -16 17 -7 35 -14 40 -16 6 -1
35 -12 65 -24 30 -12 60 -23 65 -24 6 -2 21 -7 35 -13 14 -6 70 -27 125 -47
55 -20 108 -41 117 -46 10 -6 26 -10 36 -10 10 0 23 -5 29 -11 6 -6 19 -12 29
-14 11 -2 20 -4 22 -5 1 -2 5 -3 10 -5 4 -1 18 -6 32 -12 14 -6 66 -25 115
-43 50 -18 104 -39 122 -46 17 -8 33 -14 36 -14 3 0 18 -5 34 -12 15 -6 33
-12 38 -14 20 -6 181 -66 210 -79 17 -7 41 -16 55 -20 14 -3 35 -10 48 -16 44
-18 67 -27 102 -39 19 -6 46 -18 60 -25 14 -7 27 -13 30 -13 9 -1 123 -41 175
-62 22 -9 56 -21 270 -100 77 -28 151 -56 165 -62 33 -14 58 -23 100 -38 19
-7 44 -16 55 -20 11 -4 47 -18 80 -30 33 -12 69 -26 80 -30 11 -4 36 -14 55
-20 19 -7 49 -19 65 -26 17 -6 70 -26 120 -44 49 -17 103 -37 120 -44 31 -14
192 -75 210 -80 6 -2 18 -6 27 -10 9 -4 22 -9 30 -10 12 -3 36 -12 103 -39 17
-6 32 -12 35 -13 3 0 12 -4 20 -7 30 -13 525 -198 535 -201 19 -4 160 -57 177
-67 10 -5 24 -9 31 -9 7 0 33 -10 58 -22 41 -20 85 -26 119 -16 43 12 97 30
115 38 11 5 36 13 55 19 19 5 96 30 170 56 74 26 142 48 150 50 8 2 39 13 68
24 29 11 54 20 55 20 1 0 9 2 17 5 8 3 119 40 245 81 127 42 237 79 245 82 8
4 17 7 20 8 30 8 401 134 420 142 8 3 19 5 24 4 4 -1 13 2 20 7 6 5 38 18 71
28 74 22 67 20 85 27 36 14 143 49 156 51 7 1 17 5 20 9 4 4 16 7 26 7 34 0
17 15 -55 49 -40 19 -153 74 -252 122 -99 49 -184 89 -190 90 -5 1 -21 9 -35
19 -14 9 -42 23 -62 31 -21 7 -38 17 -38 21 0 4 -3 7 -7 6 -5 -1 -69 28 -143
64 -74 36 -220 107 -325 158 -104 51 -291 142 -415 202 -206 101 -228 109
-255 99 -16 -5 -52 -13 -80 -17 -59 -8 -249 -7 -285 1 -14 3 -45 8 -70 11 -25
2 -63 10 -85 16 -22 6 -42 12 -45 13 -118 26 -305 142 -340 210 -8 17 -19 33
-23 36 -4 3 -9 22 -10 42 -1 21 -5 37 -8 37 -12 0 13 105 32 131 10 15 19 30
19 34 0 11 93 94 136 122 38 24 140 73 183 88 145 50 362 72 531 52 96 -11
194 -34 233 -54 16 -8 39 -16 50 -19 12 -2 23 -8 25 -14 2 -6 8 -8 13 -4 5 3
9 2 9 -3 0 -4 13 -14 30 -21 43 -19 141 -119 176 -177 16 -27 29 -52 29 -55 1
-3 9 -20 18 -37 10 -18 14 -33 10 -33 -5 0 -3 -4 2 -8 6 -4 22 -29 35 -55 14
-27 39 -63 56 -80 33 -34 36 -36 459 -243 154 -75 386 -188 515 -251 129 -64
335 -164 458 -224 l223 -109 57 19 c31 11 85 31 119 44 34 14 64 22 67 19 3
-3 6 -1 6 5 0 5 6 10 13 10 6 0 32 9 57 21 37 17 71 29 100 37 3 1 14 5 25 10
11 4 72 28 135 52 63 25 143 55 177 69 34 13 64 24 68 24 4 0 21 6 38 14 54
24 216 86 226 86 5 0 22 7 38 14 15 8 75 33 133 55 58 22 141 53 185 70 44 16
94 36 110 42 17 7 32 13 35 14 6 1 119 43 140 52 8 3 20 7 25 8 6 2 31 12 55
23 25 11 62 25 83 32 22 7 51 18 65 26 15 8 32 14 38 14 6 0 25 7 42 15 17 9
39 18 49 19 11 2 52 18 93 34 80 33 206 81 332 128 43 16 78 31 78 34 0 5 -75
34 -355 139 -60 23 -126 48 -145 56 -56 23 -94 38 -105 40 -9 2 -237 89 -310
118 -16 6 -32 12 -35 13 -3 0 -16 5 -30 11 -47 20 -132 51 -145 53 -2 1 -30
12 -60 25 -31 14 -60 25 -65 25 -6 0 -29 8 -53 18 -23 11 -69 29 -102 41 -33
13 -69 27 -80 32 -11 5 -87 34 -170 64 -82 31 -157 58 -165 62 -8 3 -17 7 -20
8 -3 1 -12 5 -20 8 -33 13 -336 128 -345 131 -5 1 -27 10 -49 19 -21 9 -41 17
-44 17 -5 0 -141 52 -197 75 -72 30 -197 73 -206 71 -3 0 -13 5 -21 12 -9 7
-29 17 -45 21 -15 5 -100 37 -188 71 -88 34 -171 65 -185 70 -14 4 -38 14 -55
20 -16 7 -35 14 -40 15 -6 2 -33 12 -60 23 -63 25 -214 83 -425 163 -91 34
-169 66 -175 71 -5 4 -17 8 -27 8 -10 0 -26 4 -36 10 -22 12 -406 156 -430
161 -4 1 -16 8 -27 15 -11 8 -25 14 -31 14 -6 0 -29 8 -50 17 -22 9 -44 17
-50 19 -6 1 -51 18 -100 37 -49 19 -116 45 -149 57 -33 12 -73 27 -90 35 -16
7 -46 18 -65 25 -19 7 -46 17 -60 22 -53 22 -66 27 -85 31 -11 3 -27 3 -35 0z"/>
<path d="M8750 6500 c0 -3 -23 -13 -51 -20 -27 -8 -52 -18 -55 -22 -3 -4 -12
-8 -21 -8 -8 0 -29 -6 -46 -14 -18 -7 -75 -29 -127 -49 -52 -19 -104 -39 -115
-43 -11 -4 -22 -8 -25 -9 -3 -1 -16 -6 -30 -12 -51 -21 -303 -115 -314 -117
-6 -2 -24 -8 -41 -16 -44 -18 -61 -25 -150 -58 l-80 -30 -1 -1914 c-1 -1670
-3 -1920 -16 -1968 -34 -126 -134 -233 -348 -375 -153 -102 -217 -171 -277
-299 -21 -44 -32 -80 -50 -166 -11 -54 -6 -192 11 -276 8 -39 67 -172 82 -185
8 -6 14 -16 14 -21 0 -15 90 -107 145 -148 48 -36 155 -95 155 -86 0 2 20 -2
44 -9 54 -16 215 -16 276 0 144 40 267 139 338 273 18 34 31 62 27 62 -3 0 -1
9 5 21 12 21 16 37 26 98 3 18 8 43 12 55 4 16 10 1018 12 2051 l0 101 108 43
c59 24 123 51 142 60 19 9 37 16 40 17 3 0 19 6 35 14 72 31 93 40 99 40 3 0
29 11 56 24 28 14 64 28 80 31 17 4 30 11 30 16 0 6 4 8 9 4 6 -3 14 2 19 12
6 11 9 608 9 1474 0 1214 -2 1456 -14 1456 -7 0 -13 -3 -13 -7z"/>
<path d="M1755 4963 l0 -1537 70 -2 c39 -2 70 -3 70 -4 0 -1 20 -3 45 -5 25
-2 59 -6 75 -9 17 -3 50 -9 75 -12 43 -6 155 -26 213 -38 15 -3 38 -8 52 -11
74 -15 75 -15 220 -55 17 -5 57 -16 90 -24 33 -9 67 -19 75 -23 8 -3 20 -7 25
-9 6 -1 29 -9 53 -18 23 -8 43 -15 45 -14 2 2 91 -29 122 -43 11 -4 68 -27
128 -49 59 -22 115 -44 125 -49 30 -16 153 -71 158 -71 24 0 576 -295 582
-312 2 -4 8 -8 14 -8 11 0 306 -196 418 -277 61 -44 302 -235 326 -258 6 -5
39 -35 74 -65 91 -78 220 -201 319 -302 l85 -88 50 49 c97 94 159 151 162 151
2 0 21 16 41 35 61 56 64 59 149 131 147 124 321 262 469 370 118 87 363 254
371 254 3 0 25 14 49 30 24 17 46 30 49 30 3 0 25 14 49 30 25 17 48 30 51 30
4 0 24 11 46 25 22 14 40 22 40 18 0 -5 4 -3 8 3 11 18 352 179 352 166 0 -3
5 -1 12 6 7 7 17 12 24 12 6 0 29 8 50 17 22 9 42 16 47 15 7 -2 12 33 7 53
-1 6 -1 24 0 40 2 44 2 63 0 128 -2 32 0 60 3 63 3 3 1 19 -3 35 -6 19 -5 29
2 29 7 0 7 4 -1 13 -6 8 -8 17 -4 20 6 7 6 36 2 160 -1 32 1 60 4 63 3 3 1 19
-3 35 -6 19 -5 29 2 29 7 0 6 5 -1 14 -7 8 -8 17 -3 20 5 3 6 27 2 54 -3 27
-3 60 1 74 4 14 3 31 -1 38 -4 7 -4 25 0 40 4 15 4 33 0 40 -4 7 -4 25 0 40 4
15 4 33 0 40 -4 7 -5 24 -1 38 4 14 4 47 1 72 -3 26 -3 56 1 66 3 11 3 29 -2
42 -5 12 -5 22 0 22 4 0 5 20 1 45 -4 25 -4 48 0 50 4 2 4 27 0 55 -4 29 -3
50 3 50 5 0 4 6 -2 14 -8 10 -9 16 -1 21 6 3 8 10 6 14 -3 4 -5 46 -5 92 0 46
0 91 -1 99 0 8 -1 24 -3 35 -2 11 -1 32 3 46 4 15 4 32 0 39 -4 7 -4 25 0 40
4 15 4 33 0 40 -4 7 -4 25 0 40 4 15 4 33 0 40 -4 7 -4 25 0 40 4 15 4 33 0
40 -4 7 -4 25 0 40 4 15 4 33 0 40 -4 7 -4 25 0 40 4 15 4 33 0 40 -4 7 -4 25
0 40 4 15 4 33 0 40 -4 7 -5 24 -1 38 4 14 4 47 1 72 -3 26 -3 56 1 66 3 11 3
29 -2 42 -5 12 -5 22 0 22 4 0 5 20 1 45 -4 25 -4 47 -1 50 4 2 4 31 1 64 -3
34 -3 61 0 61 3 0 5 15 3 33 -2 17 -4 47 -4 65 0 17 -2 32 -4 32 -4 0 -439
-167 -510 -195 -11 -5 -22 -9 -25 -10 -3 -1 -12 -5 -20 -8 -8 -4 -56 -22 -107
-41 -92 -35 -116 -44 -338 -131 -66 -26 -127 -48 -136 -50 -9 -2 -25 -8 -35
-14 -11 -5 -102 -42 -204 -80 -102 -39 -198 -76 -215 -82 -16 -7 -32 -13 -35
-14 -3 -1 -18 -7 -35 -14 -16 -6 -61 -23 -100 -37 -38 -14 -83 -32 -100 -39
-31 -14 -126 -49 -135 -50 -3 0 -10 -4 -17 -8 -7 -4 -20 -4 -30 1 -17 9 -37
18 -95 41 -45 18 -93 36 -98 36 -3 1 -23 9 -44 18 -21 10 -60 24 -85 33 -25 8
-59 21 -76 29 -16 7 -68 27 -115 45 -47 17 -94 36 -105 40 -34 15 -190 75
-195 76 -5 1 -22 7 -120 47 -30 12 -57 22 -60 22 -3 0 -52 19 -110 42 -58 23
-148 58 -200 78 -52 20 -122 47 -155 60 -33 13 -121 47 -195 75 -74 29 -139
55 -145 58 -5 4 -12 7 -15 7 -16 2 -87 29 -97 38 -7 5 -13 6 -13 1 0 -4 -5 -3
-12 4 -7 7 -17 12 -24 12 -6 0 -33 10 -60 22 -27 12 -51 23 -54 23 -12 2 -58
18 -85 30 -16 7 -68 28 -115 45 -47 18 -90 36 -96 41 -6 5 -13 6 -17 3 -3 -3
-18 3 -33 13 -16 10 -29 17 -31 16 -4 -3 -28 6 -80 28 -23 11 -45 19 -49 19
-7 0 -117 41 -159 60 -11 5 -58 23 -105 41 -47 18 -89 35 -95 39 -5 4 -23 10
-40 14 -16 4 -43 13 -60 21 -16 7 -50 21 -75 30 -25 9 -56 22 -70 28 -14 5
-29 11 -35 13 -5 1 -50 18 -100 38 -49 20 -97 36 -105 36 -13 0 -15 -174 -15
-1537z"/>
</g>
</svg>
